<svg height="512pt" viewBox="-54 0 512 512" width="512pt" xmlns="http://www.w3.org/2000/svg"><path d="m403.335938 121.664062-202.914063-20-21.332031 221.214844 21.332031 189.121094h202.914063zm0 0" fill="#c3dce6"/><path d="m0 121.664062v390.335938h200.421875v-410.335938zm0 0" fill="#e1f0f5"/><path d="m403.335938 27.667969h-202.914063l-21.332031 48.453125 21.332031 45.542968h202.914063zm0 0" fill="#b05819"/><path d="m0 27.667969h200.421875v94h-200.421875zm0 0" fill="#cc6f2d"/><path d="m80 0h30v74.664062h-30zm0 0" fill="#d9e7ec"/><path d="m293.335938 0h30v74.664062h-30zm0 0" fill="#c5d3dd"/><path d="m216.667969 0h-16.246094l-10.664063 32 10.664063 42.664062h16.246094zm0 0" fill="#c5d3dd"/><path d="m186.667969 0h13.753906v74.664062h-13.753906zm0 0" fill="#d9e7ec"/><g fill="#aab8c7"><path d="m61.757812 297.667969h96v30h-96zm0 0"/><path d="m61.757812 354.667969h96v30h-96zm0 0"/><path d="m61.757812 411.667969h96v30h-96zm0 0"/></g><path d="m243.089844 297.667969h96v30h-96zm0 0" fill="#8d9ca8"/><path d="m243.089844 354.667969h96v30h-96zm0 0" fill="#8d9ca8"/><path d="m243.089844 411.667969h96v30h-96zm0 0" fill="#8d9ca8"/><path d="m152.363281 184.605469-21.214843-21.210938-21.390626 21.390625-21.394531-21.390625-21.214843 21.210938 21.394531 21.394531-21.394531 21.394531 21.214843 21.210938 21.394531-21.390625 21.390626 21.390625 21.214843-21.210938-21.394531-21.394531zm0 0" fill="#f04000"/><path d="m285.757812 245.546875-35.941406-35.941406 21.214844-21.210938 14.726562 14.726563 32.058594-32.0625 21.214844 21.214844zm0 0" fill="#12b0ff"/></svg>